name C:\Users\u0101727\Documents\MyRepositories\upper-imu-dc\Results\main_tracking\Case_47\FLX03_orientations_groundFrame.mot
datacolumns 13
datarows 21
range 3.76000000 3.96000000
endheader 
time	radius_imu_[0][0]	radius_imu_[0][1]	radius_imu_[0][2]	radius_imu_[1][0]	radius_imu_[1][1]	radius_imu_[1][2]	radius_imu_[2][0]	radius_imu_[2][1]	radius_imu_[2][2]	radius_imu_x	radius_imu_y	radius_imu_z	
          3.76000000	          0.95940768	         -0.03584972	         -0.27973506	          0.05241242	         -0.95194335	          0.30175618	         -0.27710981	         -0.30416879	         -0.91142279	         -2.82186917	         -0.28351814	          0.03734914	
          3.77000000	          0.95909933	         -0.03959424	         -0.28028696	          0.04916905	         -0.95181500	          0.30270548	         -0.27876672	         -0.30410607	         -0.91093832	         -2.82077172	         -0.28409303	          0.04125930	
          3.78000000	          0.95878386	         -0.04348195	         -0.28078965	          0.04577294	         -0.95167742	          0.30366911	         -0.28042529	         -0.30400561	         -0.91046266	         -2.81966264	         -0.28461676	          0.04532009	
          3.79000000	          0.95845660	         -0.04750011	         -0.28125557	          0.04224229	         -0.95152660	          0.30465180	         -0.28209315	         -0.30387641	         -0.90999043	         -2.81853552	         -0.28510224	          0.04951844	
          3.80000000	          0.95811437	         -0.05163561	         -0.28169240	          0.03859415	         -0.95135878	          0.30565824	         -0.28377339	         -0.30372724	         -0.90951769	         -2.81738445	         -0.28555748	          0.05384087	
          3.81000000	          0.95775545	         -0.05587490	         -0.28210371	          0.03484458	         -0.95117056	          0.30669272	         -0.28546517	         -0.30356640	         -0.90904184	         -2.81620435	         -0.28598618	          0.05827338	
          3.82000000	          0.95737927	         -0.06020396	         -0.28248967	          0.03100880	         -0.95095899	          0.30775877	         -0.28716439	         -0.30340154	         -0.90856157	         -2.81499129	         -0.28638850	          0.06280143	
          3.83000000	          0.95698634	         -0.06460840	         -0.28284784	          0.02710124	         -0.95072162	          0.30885907	         -0.28886444	         -0.30323944	         -0.90807663	         -2.81374259	         -0.28676190	          0.06741006	
          3.84000000	          0.95657803	         -0.06907363	         -0.28317365	          0.02313560	         -0.95045657	          0.30999525	         -0.29055675	         -0.30308603	         -0.90758781	         -2.81245690	         -0.28710160	          0.07208398	
          3.85000000	          0.95615646	         -0.07358506	         -0.28346088	          0.01912465	         -0.95016250	          0.31116790	         -0.29223121	         -0.30294629	         -0.90709672	         -2.81113421	         -0.28740110	          0.07680783	
          3.86000000	          0.95572443	         -0.07812836	         -0.28370189	          0.01508019	         -0.94983863	          0.31237664	         -0.29387649	         -0.30282426	         -0.90660580	         -2.80977576	         -0.28765243	          0.08156642	
          3.87000000	          0.95528536	         -0.08268966	         -0.28388784	          0.01101281	         -0.94948467	          0.31362013	         -0.29548029	         -0.30272312	         -0.90611815	         -2.80838399	         -0.28784635	          0.08634495	
          3.88000000	          0.95484314	         -0.08725582	         -0.28400881	          0.00693177	         -0.94910078	          0.31489627	         -0.29702951	         -0.30264523	         -0.90563753	         -2.80696229	         -0.28797251	          0.09112925	
          3.89000000	          0.95440214	         -0.09181456	         -0.28405394	          0.00284492	         -0.94868750	          0.31620235	         -0.29851041	         -0.30259232	         -0.90516818	         -2.80551488	         -0.28801958	          0.09590599	
          3.90000000	          0.95396709	         -0.09635470	         -0.28401155	         -0.00124139	         -0.94824565	          0.31753528	         -0.29990873	         -0.30256564	         -0.90471475	         -2.80404653	         -0.28797537	          0.10066283	
          3.91000000	          0.95354303	         -0.10086623	         -0.28386915	         -0.00532232	         -0.94777618	          0.31889182	         -0.30120984	         -0.30256623	         -0.90428221	         -2.80256224	         -0.28782686	          0.10538855	
          3.92000000	          0.95313518	         -0.10534040	         -0.28361370	         -0.00939451	         -0.94728011	          0.32026884	         -0.30239886	         -0.30259508	         -0.90387562	         -2.80106698	         -0.28756045	          0.11007318	
          3.93000000	          0.95274882	         -0.10976988	         -0.28323181	         -0.01345602	         -0.94675841	          0.32166356	         -0.30346107	         -0.30265340	         -0.90350003	         -2.79956542	         -0.28716224	          0.11470810	
          3.94000000	          0.95238903	         -0.11414882	         -0.28271042	         -0.01750615	         -0.94621188	          0.32307370	         -0.30438244	         -0.30274268	         -0.90316012	         -2.79806160	         -0.28661863	          0.11928622	
          3.95000000	          0.95206033	         -0.11847296	         -0.28203774	         -0.02154519	         -0.94564110	          0.32449764	         -0.30515067	         -0.30286477	         -0.90285990	         -2.79655873	         -0.28591741	          0.12380210	
          3.96000000	          0.95176620	         -0.12273982	         -0.28120461	         -0.02557407	         -0.94504638	          0.32593452	         -0.30575654	         -0.30302191	         -0.90260216	         -2.79505884	         -0.28504914	          0.12825221	
